<?xml version="1.0" encoding="utf-8" ?>
<svg xmlns="http://www.w3.org/2000/svg" xmlns:ev="http://www.w3.org/2001/xml-events" xmlns:xlink="http://www.w3.org/1999/xlink" baseProfile="tiny" height="150mm" version="1.2" viewBox="0 0 300 150" width="300mm">
    <defs/>
    <rect fill="none" height="4.5" rx="2.25" ry="2.25" stroke="#000" stroke-linejoin="round" stroke-width="1" width="9.5" x="17.75" y="12.75"/>
    <rect fill="none" height="4.5" rx="2.25" ry="2.25" stroke="#000" stroke-linejoin="round" stroke-width="1" width="9.5" x="32.75" y="12.75"/>
    <rect fill="none" height="4.5" rx="2.25" ry="2.25" stroke="#000" stroke-linejoin="round" stroke-width="1" width="9.5" x="47.75" y="12.75"/>
    <rect fill="none" height="4.5" rx="2.25" ry="2.25" stroke="#000" stroke-linejoin="round" stroke-width="1" width="9.5" x="62.75" y="12.75"/>
    <rect fill="none" height="4.5" rx="2.25" ry="2.25" stroke="#000" stroke-linejoin="round" stroke-width="1" width="9.5" x="77.75" y="12.75"/>
    <rect fill="none" height="4.5" rx="2.25" ry="2.25" stroke="#000" stroke-linejoin="round" stroke-width="1" width="9.5" x="92.75" y="12.75"/>
    <rect fill="none" height="4.5" rx="2.25" ry="2.25" stroke="#000" stroke-linejoin="round" stroke-width="1" width="9.5" x="107.75" y="12.75"/>
    <rect fill="none" height="4.5" rx="2.25" ry="2.25" stroke="#000" stroke-linejoin="round" stroke-width="1" width="9.5" x="122.75" y="12.75"/>
    <rect fill="none" height="4.5" rx="2.25" ry="2.25" stroke="#000" stroke-linejoin="round" stroke-width="1" width="9.5" x="137.75" y="12.75"/>
    <rect fill="none" height="4.5" rx="2.25" ry="2.25" stroke="#000" stroke-linejoin="round" stroke-width="1" width="9.5" x="152.75" y="12.75"/>
    <rect fill="none" height="4.5" rx="2.25" ry="2.25" stroke="#000" stroke-linejoin="round" stroke-width="1" width="9.5" x="167.75" y="12.75"/>
    <rect fill="none" height="4.5" rx="2.25" ry="2.25" stroke="#000" stroke-linejoin="round" stroke-width="1" width="9.5" x="182.75" y="12.75"/>
    <rect fill="none" height="4.5" rx="2.25" ry="2.25" stroke="#000" stroke-linejoin="round" stroke-width="1" width="9.5" x="197.75" y="12.75"/>
    <rect fill="none" height="4.5" rx="2.25" ry="2.25" stroke="#000" stroke-linejoin="round" stroke-width="1" width="9.5" x="212.75" y="12.75"/>
    <rect fill="none" height="4.5" rx="2.25" ry="2.25" stroke="#000" stroke-linejoin="round" stroke-width="1" width="9.5" x="227.75" y="12.75"/>
    <rect fill="none" height="4.5" rx="2.25" ry="2.25" stroke="#000" stroke-linejoin="round" stroke-width="1" width="9.5" x="242.75" y="12.75"/>
    <rect fill="none" height="4.5" rx="2.25" ry="2.25" stroke="#000" stroke-linejoin="round" stroke-width="1" width="9.5" x="257.75" y="12.75"/>
    <rect fill="none" height="4.5" rx="2.25" ry="2.25" stroke="#000" stroke-linejoin="round" stroke-width="1" width="9.5" x="272.75" y="12.75"/>
    <rect fill="none" height="4.5" rx="2.25" ry="2.25" stroke="#000" stroke-linejoin="round" stroke-width="1" width="9.5" x="25.25" y="22.75"/>
    <rect fill="none" height="4.5" rx="2.25" ry="2.25" stroke="#000" stroke-linejoin="round" stroke-width="1" width="9.5" x="40.25" y="22.75"/>
    <rect fill="none" height="4.5" rx="2.25" ry="2.25" stroke="#000" stroke-linejoin="round" stroke-width="1" width="9.5" x="55.25" y="22.75"/>
    <rect fill="none" height="4.5" rx="2.25" ry="2.25" stroke="#000" stroke-linejoin="round" stroke-width="1" width="9.5" x="70.25" y="22.75"/>
    <rect fill="none" height="4.5" rx="2.25" ry="2.25" stroke="#000" stroke-linejoin="round" stroke-width="1" width="9.5" x="85.25" y="22.75"/>
    <rect fill="none" height="4.5" rx="2.25" ry="2.25" stroke="#000" stroke-linejoin="round" stroke-width="1" width="9.5" x="100.25" y="22.75"/>
    <rect fill="none" height="4.5" rx="2.25" ry="2.25" stroke="#000" stroke-linejoin="round" stroke-width="1" width="9.5" x="115.25" y="22.75"/>
    <rect fill="none" height="4.5" rx="2.25" ry="2.25" stroke="#000" stroke-linejoin="round" stroke-width="1" width="9.5" x="130.25" y="22.75"/>
    <rect fill="none" height="4.5" rx="2.25" ry="2.25" stroke="#000" stroke-linejoin="round" stroke-width="1" width="9.5" x="145.25" y="22.75"/>
    <rect fill="none" height="4.5" rx="2.25" ry="2.25" stroke="#000" stroke-linejoin="round" stroke-width="1" width="9.5" x="160.25" y="22.75"/>
    <rect fill="none" height="4.5" rx="2.25" ry="2.25" stroke="#000" stroke-linejoin="round" stroke-width="1" width="9.5" x="175.25" y="22.75"/>
    <rect fill="none" height="4.5" rx="2.25" ry="2.25" stroke="#000" stroke-linejoin="round" stroke-width="1" width="9.5" x="190.25" y="22.75"/>
    <rect fill="none" height="4.5" rx="2.25" ry="2.25" stroke="#000" stroke-linejoin="round" stroke-width="1" width="9.5" x="205.25" y="22.75"/>
    <rect fill="none" height="4.5" rx="2.25" ry="2.25" stroke="#000" stroke-linejoin="round" stroke-width="1" width="9.5" x="220.25" y="22.75"/>
    <rect fill="none" height="4.5" rx="2.25" ry="2.25" stroke="#000" stroke-linejoin="round" stroke-width="1" width="9.5" x="235.25" y="22.75"/>
    <rect fill="none" height="4.5" rx="2.25" ry="2.25" stroke="#000" stroke-linejoin="round" stroke-width="1" width="9.5" x="250.25" y="22.75"/>
    <rect fill="none" height="4.5" rx="2.25" ry="2.25" stroke="#000" stroke-linejoin="round" stroke-width="1" width="9.5" x="265.25" y="22.75"/>
    <rect fill="none" height="4.5" rx="2.25" ry="2.25" stroke="#000" stroke-linejoin="round" stroke-width="1" width="9.5" x="17.75" y="32.75"/>
    <rect fill="none" height="4.5" rx="2.25" ry="2.25" stroke="#000" stroke-linejoin="round" stroke-width="1" width="9.5" x="32.75" y="32.75"/>
    <rect fill="none" height="4.5" rx="2.25" ry="2.25" stroke="#000" stroke-linejoin="round" stroke-width="1" width="9.5" x="47.75" y="32.75"/>
    <rect fill="none" height="4.5" rx="2.25" ry="2.25" stroke="#000" stroke-linejoin="round" stroke-width="1" width="9.5" x="62.75" y="32.75"/>
    <rect fill="none" height="4.5" rx="2.25" ry="2.25" stroke="#000" stroke-linejoin="round" stroke-width="1" width="9.5" x="77.75" y="32.75"/>
    <rect fill="none" height="4.5" rx="2.25" ry="2.25" stroke="#000" stroke-linejoin="round" stroke-width="1" width="9.5" x="92.75" y="32.75"/>
    <rect fill="none" height="4.5" rx="2.25" ry="2.25" stroke="#000" stroke-linejoin="round" stroke-width="1" width="9.5" x="107.75" y="32.75"/>
    <rect fill="none" height="4.5" rx="2.25" ry="2.25" stroke="#000" stroke-linejoin="round" stroke-width="1" width="9.5" x="122.75" y="32.75"/>
    <rect fill="none" height="4.5" rx="2.25" ry="2.25" stroke="#000" stroke-linejoin="round" stroke-width="1" width="9.5" x="137.75" y="32.75"/>
    <rect fill="none" height="4.5" rx="2.25" ry="2.25" stroke="#000" stroke-linejoin="round" stroke-width="1" width="9.5" x="152.75" y="32.75"/>
    <rect fill="none" height="4.5" rx="2.25" ry="2.25" stroke="#000" stroke-linejoin="round" stroke-width="1" width="9.5" x="167.75" y="32.75"/>
    <rect fill="none" height="4.5" rx="2.25" ry="2.25" stroke="#000" stroke-linejoin="round" stroke-width="1" width="9.5" x="182.75" y="32.75"/>
    <rect fill="none" height="4.5" rx="2.25" ry="2.25" stroke="#000" stroke-linejoin="round" stroke-width="1" width="9.5" x="197.75" y="32.75"/>
    <rect fill="none" height="4.5" rx="2.25" ry="2.25" stroke="#000" stroke-linejoin="round" stroke-width="1" width="9.5" x="212.75" y="32.75"/>
    <rect fill="none" height="4.5" rx="2.25" ry="2.25" stroke="#000" stroke-linejoin="round" stroke-width="1" width="9.5" x="227.75" y="32.75"/>
    <rect fill="none" height="4.5" rx="2.25" ry="2.25" stroke="#000" stroke-linejoin="round" stroke-width="1" width="9.5" x="242.75" y="32.75"/>
    <rect fill="none" height="4.5" rx="2.25" ry="2.25" stroke="#000" stroke-linejoin="round" stroke-width="1" width="9.5" x="257.75" y="32.75"/>
    <rect fill="none" height="4.5" rx="2.25" ry="2.25" stroke="#000" stroke-linejoin="round" stroke-width="1" width="9.5" x="272.75" y="32.75"/>
    <rect fill="none" height="4.5" rx="2.25" ry="2.25" stroke="#000" stroke-linejoin="round" stroke-width="1" width="9.5" x="25.25" y="42.75"/>
    <rect fill="none" height="4.5" rx="2.25" ry="2.25" stroke="#000" stroke-linejoin="round" stroke-width="1" width="9.5" x="40.25" y="42.75"/>
    <rect fill="none" height="4.5" rx="2.25" ry="2.25" stroke="#000" stroke-linejoin="round" stroke-width="1" width="9.5" x="55.25" y="42.75"/>
    <rect fill="none" height="4.5" rx="2.25" ry="2.25" stroke="#000" stroke-linejoin="round" stroke-width="1" width="9.5" x="70.25" y="42.75"/>
    <rect fill="none" height="4.5" rx="2.25" ry="2.25" stroke="#000" stroke-linejoin="round" stroke-width="1" width="9.5" x="85.25" y="42.75"/>
    <rect fill="none" height="4.5" rx="2.25" ry="2.25" stroke="#000" stroke-linejoin="round" stroke-width="1" width="9.5" x="100.25" y="42.75"/>
    <rect fill="none" height="4.5" rx="2.25" ry="2.25" stroke="#000" stroke-linejoin="round" stroke-width="1" width="9.5" x="115.25" y="42.75"/>
    <rect fill="none" height="4.5" rx="2.25" ry="2.25" stroke="#000" stroke-linejoin="round" stroke-width="1" width="9.5" x="130.25" y="42.75"/>
    <rect fill="none" height="4.5" rx="2.25" ry="2.25" stroke="#000" stroke-linejoin="round" stroke-width="1" width="9.5" x="145.25" y="42.75"/>
    <rect fill="none" height="4.5" rx="2.25" ry="2.25" stroke="#000" stroke-linejoin="round" stroke-width="1" width="9.5" x="160.25" y="42.75"/>
    <rect fill="none" height="4.5" rx="2.25" ry="2.25" stroke="#000" stroke-linejoin="round" stroke-width="1" width="9.5" x="175.25" y="42.75"/>
    <rect fill="none" height="4.5" rx="2.25" ry="2.25" stroke="#000" stroke-linejoin="round" stroke-width="1" width="9.5" x="190.25" y="42.75"/>
    <rect fill="none" height="4.5" rx="2.25" ry="2.25" stroke="#000" stroke-linejoin="round" stroke-width="1" width="9.5" x="205.25" y="42.75"/>
    <rect fill="none" height="4.5" rx="2.25" ry="2.25" stroke="#000" stroke-linejoin="round" stroke-width="1" width="9.5" x="220.25" y="42.75"/>
    <rect fill="none" height="4.5" rx="2.25" ry="2.25" stroke="#000" stroke-linejoin="round" stroke-width="1" width="9.5" x="235.25" y="42.75"/>
    <rect fill="none" height="4.5" rx="2.25" ry="2.25" stroke="#000" stroke-linejoin="round" stroke-width="1" width="9.5" x="250.25" y="42.75"/>
    <rect fill="none" height="4.5" rx="2.25" ry="2.25" stroke="#000" stroke-linejoin="round" stroke-width="1" width="9.5" x="265.25" y="42.75"/>
    <rect fill="none" height="4.5" rx="2.25" ry="2.25" stroke="#000" stroke-linejoin="round" stroke-width="1" width="9.5" x="17.75" y="52.75"/>
    <rect fill="none" height="4.5" rx="2.25" ry="2.25" stroke="#000" stroke-linejoin="round" stroke-width="1" width="9.5" x="32.75" y="52.75"/>
    <rect fill="none" height="4.5" rx="2.25" ry="2.25" stroke="#000" stroke-linejoin="round" stroke-width="1" width="9.5" x="47.75" y="52.75"/>
    <rect fill="none" height="4.5" rx="2.25" ry="2.25" stroke="#000" stroke-linejoin="round" stroke-width="1" width="9.5" x="62.75" y="52.75"/>
    <rect fill="none" height="4.5" rx="2.25" ry="2.25" stroke="#000" stroke-linejoin="round" stroke-width="1" width="9.5" x="77.75" y="52.75"/>
    <rect fill="none" height="4.5" rx="2.25" ry="2.25" stroke="#000" stroke-linejoin="round" stroke-width="1" width="9.5" x="92.75" y="52.75"/>
    <rect fill="none" height="4.5" rx="2.25" ry="2.25" stroke="#000" stroke-linejoin="round" stroke-width="1" width="9.5" x="107.75" y="52.75"/>
    <rect fill="none" height="4.5" rx="2.25" ry="2.25" stroke="#000" stroke-linejoin="round" stroke-width="1" width="9.5" x="122.75" y="52.75"/>
    <rect fill="none" height="4.5" rx="2.25" ry="2.25" stroke="#000" stroke-linejoin="round" stroke-width="1" width="9.5" x="137.75" y="52.75"/>
    <rect fill="none" height="4.5" rx="2.25" ry="2.25" stroke="#000" stroke-linejoin="round" stroke-width="1" width="9.5" x="152.75" y="52.75"/>
    <rect fill="none" height="4.5" rx="2.25" ry="2.25" stroke="#000" stroke-linejoin="round" stroke-width="1" width="9.5" x="167.75" y="52.75"/>
    <rect fill="none" height="4.5" rx="2.25" ry="2.25" stroke="#000" stroke-linejoin="round" stroke-width="1" width="9.5" x="182.75" y="52.75"/>
    <rect fill="none" height="4.5" rx="2.25" ry="2.25" stroke="#000" stroke-linejoin="round" stroke-width="1" width="9.5" x="197.75" y="52.75"/>
    <rect fill="none" height="4.5" rx="2.25" ry="2.25" stroke="#000" stroke-linejoin="round" stroke-width="1" width="9.5" x="212.75" y="52.75"/>
    <rect fill="none" height="4.5" rx="2.25" ry="2.25" stroke="#000" stroke-linejoin="round" stroke-width="1" width="9.5" x="227.75" y="52.75"/>
    <rect fill="none" height="4.5" rx="2.25" ry="2.25" stroke="#000" stroke-linejoin="round" stroke-width="1" width="9.5" x="242.75" y="52.75"/>
    <rect fill="none" height="4.5" rx="2.25" ry="2.25" stroke="#000" stroke-linejoin="round" stroke-width="1" width="9.5" x="257.75" y="52.75"/>
    <rect fill="none" height="4.5" rx="2.25" ry="2.25" stroke="#000" stroke-linejoin="round" stroke-width="1" width="9.5" x="272.75" y="52.75"/>
    <rect fill="none" height="4.5" rx="2.25" ry="2.25" stroke="#000" stroke-linejoin="round" stroke-width="1" width="9.5" x="25.25" y="62.75"/>
    <rect fill="none" height="4.5" rx="2.25" ry="2.25" stroke="#000" stroke-linejoin="round" stroke-width="1" width="9.5" x="40.25" y="62.75"/>
    <rect fill="none" height="4.5" rx="2.25" ry="2.25" stroke="#000" stroke-linejoin="round" stroke-width="1" width="9.5" x="55.25" y="62.75"/>
    <rect fill="none" height="4.5" rx="2.25" ry="2.25" stroke="#000" stroke-linejoin="round" stroke-width="1" width="9.5" x="70.25" y="62.75"/>
    <rect fill="none" height="4.5" rx="2.25" ry="2.25" stroke="#000" stroke-linejoin="round" stroke-width="1" width="9.5" x="85.25" y="62.75"/>
    <rect fill="none" height="4.5" rx="2.25" ry="2.25" stroke="#000" stroke-linejoin="round" stroke-width="1" width="9.5" x="100.25" y="62.75"/>
    <rect fill="none" height="4.5" rx="2.25" ry="2.25" stroke="#000" stroke-linejoin="round" stroke-width="1" width="9.5" x="115.25" y="62.75"/>
    <rect fill="none" height="4.5" rx="2.25" ry="2.25" stroke="#000" stroke-linejoin="round" stroke-width="1" width="9.5" x="130.25" y="62.75"/>
    <rect fill="none" height="4.5" rx="2.25" ry="2.25" stroke="#000" stroke-linejoin="round" stroke-width="1" width="9.5" x="145.25" y="62.75"/>
    <rect fill="none" height="4.5" rx="2.25" ry="2.25" stroke="#000" stroke-linejoin="round" stroke-width="1" width="9.5" x="160.25" y="62.75"/>
    <rect fill="none" height="4.5" rx="2.25" ry="2.25" stroke="#000" stroke-linejoin="round" stroke-width="1" width="9.5" x="175.25" y="62.75"/>
    <rect fill="none" height="4.5" rx="2.25" ry="2.25" stroke="#000" stroke-linejoin="round" stroke-width="1" width="9.5" x="190.25" y="62.75"/>
    <rect fill="none" height="4.5" rx="2.25" ry="2.25" stroke="#000" stroke-linejoin="round" stroke-width="1" width="9.5" x="205.25" y="62.75"/>
    <rect fill="none" height="4.5" rx="2.25" ry="2.25" stroke="#000" stroke-linejoin="round" stroke-width="1" width="9.5" x="220.25" y="62.75"/>
    <rect fill="none" height="4.5" rx="2.25" ry="2.25" stroke="#000" stroke-linejoin="round" stroke-width="1" width="9.5" x="235.25" y="62.75"/>
    <rect fill="none" height="4.5" rx="2.25" ry="2.25" stroke="#000" stroke-linejoin="round" stroke-width="1" width="9.5" x="250.25" y="62.75"/>
    <rect fill="none" height="4.5" rx="2.25" ry="2.25" stroke="#000" stroke-linejoin="round" stroke-width="1" width="9.5" x="265.25" y="62.75"/>
    <rect fill="none" height="4.5" rx="2.25" ry="2.25" stroke="#000" stroke-linejoin="round" stroke-width="1" width="9.5" x="17.75" y="72.75"/>
    <rect fill="none" height="4.5" rx="2.25" ry="2.25" stroke="#000" stroke-linejoin="round" stroke-width="1" width="9.5" x="32.75" y="72.75"/>
    <rect fill="none" height="4.5" rx="2.25" ry="2.25" stroke="#000" stroke-linejoin="round" stroke-width="1" width="9.5" x="47.75" y="72.75"/>
    <rect fill="none" height="4.5" rx="2.25" ry="2.25" stroke="#000" stroke-linejoin="round" stroke-width="1" width="9.5" x="62.75" y="72.75"/>
    <rect fill="none" height="4.5" rx="2.25" ry="2.25" stroke="#000" stroke-linejoin="round" stroke-width="1" width="9.5" x="77.75" y="72.75"/>
    <rect fill="none" height="4.5" rx="2.25" ry="2.25" stroke="#000" stroke-linejoin="round" stroke-width="1" width="9.5" x="92.75" y="72.75"/>
    <rect fill="none" height="4.5" rx="2.25" ry="2.25" stroke="#000" stroke-linejoin="round" stroke-width="1" width="9.5" x="107.75" y="72.75"/>
    <rect fill="none" height="4.5" rx="2.25" ry="2.25" stroke="#000" stroke-linejoin="round" stroke-width="1" width="9.5" x="122.75" y="72.75"/>
    <rect fill="none" height="4.5" rx="2.25" ry="2.25" stroke="#000" stroke-linejoin="round" stroke-width="1" width="9.5" x="137.75" y="72.75"/>
    <rect fill="none" height="4.5" rx="2.25" ry="2.25" stroke="#000" stroke-linejoin="round" stroke-width="1" width="9.5" x="152.75" y="72.75"/>
    <rect fill="none" height="4.5" rx="2.25" ry="2.25" stroke="#000" stroke-linejoin="round" stroke-width="1" width="9.5" x="167.75" y="72.75"/>
    <rect fill="none" height="4.5" rx="2.25" ry="2.25" stroke="#000" stroke-linejoin="round" stroke-width="1" width="9.5" x="182.75" y="72.75"/>
    <rect fill="none" height="4.5" rx="2.25" ry="2.25" stroke="#000" stroke-linejoin="round" stroke-width="1" width="9.5" x="197.75" y="72.75"/>
    <rect fill="none" height="4.5" rx="2.25" ry="2.25" stroke="#000" stroke-linejoin="round" stroke-width="1" width="9.5" x="212.75" y="72.75"/>
    <rect fill="none" height="4.5" rx="2.25" ry="2.25" stroke="#000" stroke-linejoin="round" stroke-width="1" width="9.5" x="227.75" y="72.75"/>
    <rect fill="none" height="4.5" rx="2.25" ry="2.25" stroke="#000" stroke-linejoin="round" stroke-width="1" width="9.5" x="242.75" y="72.75"/>
    <rect fill="none" height="4.5" rx="2.25" ry="2.25" stroke="#000" stroke-linejoin="round" stroke-width="1" width="9.5" x="257.75" y="72.75"/>
    <rect fill="none" height="4.5" rx="2.25" ry="2.25" stroke="#000" stroke-linejoin="round" stroke-width="1" width="9.5" x="272.75" y="72.75"/>
    <rect fill="none" height="4.5" rx="2.25" ry="2.25" stroke="#000" stroke-linejoin="round" stroke-width="1" width="9.5" x="25.25" y="82.75"/>
    <rect fill="none" height="4.5" rx="2.25" ry="2.25" stroke="#000" stroke-linejoin="round" stroke-width="1" width="9.5" x="40.25" y="82.75"/>
    <rect fill="none" height="4.5" rx="2.25" ry="2.25" stroke="#000" stroke-linejoin="round" stroke-width="1" width="9.5" x="55.25" y="82.75"/>
    <rect fill="none" height="4.5" rx="2.25" ry="2.25" stroke="#000" stroke-linejoin="round" stroke-width="1" width="9.5" x="70.25" y="82.75"/>
    <rect fill="none" height="4.5" rx="2.25" ry="2.25" stroke="#000" stroke-linejoin="round" stroke-width="1" width="9.5" x="85.25" y="82.75"/>
    <rect fill="none" height="4.5" rx="2.25" ry="2.25" stroke="#000" stroke-linejoin="round" stroke-width="1" width="9.5" x="100.25" y="82.75"/>
    <rect fill="none" height="4.5" rx="2.25" ry="2.25" stroke="#000" stroke-linejoin="round" stroke-width="1" width="9.5" x="115.25" y="82.75"/>
    <rect fill="none" height="4.5" rx="2.25" ry="2.25" stroke="#000" stroke-linejoin="round" stroke-width="1" width="9.5" x="130.25" y="82.75"/>
    <rect fill="none" height="4.5" rx="2.25" ry="2.25" stroke="#000" stroke-linejoin="round" stroke-width="1" width="9.5" x="145.25" y="82.75"/>
    <rect fill="none" height="4.5" rx="2.25" ry="2.25" stroke="#000" stroke-linejoin="round" stroke-width="1" width="9.5" x="160.25" y="82.75"/>
    <rect fill="none" height="4.5" rx="2.25" ry="2.25" stroke="#000" stroke-linejoin="round" stroke-width="1" width="9.5" x="175.25" y="82.75"/>
    <rect fill="none" height="4.5" rx="2.25" ry="2.25" stroke="#000" stroke-linejoin="round" stroke-width="1" width="9.5" x="190.25" y="82.75"/>
    <rect fill="none" height="4.5" rx="2.25" ry="2.25" stroke="#000" stroke-linejoin="round" stroke-width="1" width="9.5" x="205.25" y="82.75"/>
    <rect fill="none" height="4.5" rx="2.25" ry="2.25" stroke="#000" stroke-linejoin="round" stroke-width="1" width="9.5" x="220.25" y="82.75"/>
    <rect fill="none" height="4.5" rx="2.25" ry="2.25" stroke="#000" stroke-linejoin="round" stroke-width="1" width="9.5" x="235.25" y="82.75"/>
    <rect fill="none" height="4.5" rx="2.25" ry="2.25" stroke="#000" stroke-linejoin="round" stroke-width="1" width="9.5" x="250.25" y="82.75"/>
    <rect fill="none" height="4.5" rx="2.25" ry="2.25" stroke="#000" stroke-linejoin="round" stroke-width="1" width="9.5" x="265.25" y="82.75"/>
    <rect fill="none" height="4.5" rx="2.25" ry="2.25" stroke="#000" stroke-linejoin="round" stroke-width="1" width="9.5" x="17.75" y="92.75"/>
    <rect fill="none" height="4.5" rx="2.25" ry="2.25" stroke="#000" stroke-linejoin="round" stroke-width="1" width="9.5" x="32.75" y="92.75"/>
    <rect fill="none" height="4.5" rx="2.25" ry="2.25" stroke="#000" stroke-linejoin="round" stroke-width="1" width="9.5" x="47.75" y="92.75"/>
    <rect fill="none" height="4.5" rx="2.25" ry="2.25" stroke="#000" stroke-linejoin="round" stroke-width="1" width="9.5" x="62.75" y="92.75"/>
    <rect fill="none" height="4.5" rx="2.25" ry="2.25" stroke="#000" stroke-linejoin="round" stroke-width="1" width="9.5" x="77.75" y="92.75"/>
    <rect fill="none" height="4.5" rx="2.25" ry="2.25" stroke="#000" stroke-linejoin="round" stroke-width="1" width="9.5" x="92.75" y="92.75"/>
    <rect fill="none" height="4.5" rx="2.25" ry="2.25" stroke="#000" stroke-linejoin="round" stroke-width="1" width="9.5" x="107.75" y="92.75"/>
    <rect fill="none" height="4.5" rx="2.25" ry="2.25" stroke="#000" stroke-linejoin="round" stroke-width="1" width="9.5" x="122.75" y="92.75"/>
    <rect fill="none" height="4.5" rx="2.25" ry="2.25" stroke="#000" stroke-linejoin="round" stroke-width="1" width="9.5" x="137.75" y="92.75"/>
    <rect fill="none" height="4.5" rx="2.25" ry="2.25" stroke="#000" stroke-linejoin="round" stroke-width="1" width="9.5" x="152.75" y="92.75"/>
    <rect fill="none" height="4.5" rx="2.25" ry="2.25" stroke="#000" stroke-linejoin="round" stroke-width="1" width="9.5" x="167.75" y="92.75"/>
    <rect fill="none" height="4.5" rx="2.25" ry="2.25" stroke="#000" stroke-linejoin="round" stroke-width="1" width="9.5" x="182.75" y="92.75"/>
    <rect fill="none" height="4.5" rx="2.25" ry="2.25" stroke="#000" stroke-linejoin="round" stroke-width="1" width="9.5" x="197.75" y="92.75"/>
    <rect fill="none" height="4.5" rx="2.25" ry="2.25" stroke="#000" stroke-linejoin="round" stroke-width="1" width="9.5" x="212.75" y="92.75"/>
    <rect fill="none" height="4.5" rx="2.25" ry="2.25" stroke="#000" stroke-linejoin="round" stroke-width="1" width="9.5" x="227.75" y="92.75"/>
    <rect fill="none" height="4.5" rx="2.25" ry="2.25" stroke="#000" stroke-linejoin="round" stroke-width="1" width="9.5" x="242.75" y="92.75"/>
    <rect fill="none" height="4.5" rx="2.25" ry="2.25" stroke="#000" stroke-linejoin="round" stroke-width="1" width="9.5" x="257.75" y="92.75"/>
    <rect fill="none" height="4.5" rx="2.25" ry="2.25" stroke="#000" stroke-linejoin="round" stroke-width="1" width="9.5" x="272.75" y="92.75"/>
    <rect fill="none" height="4.5" rx="2.25" ry="2.25" stroke="#000" stroke-linejoin="round" stroke-width="1" width="9.5" x="25.25" y="102.75"/>
    <rect fill="none" height="4.5" rx="2.25" ry="2.25" stroke="#000" stroke-linejoin="round" stroke-width="1" width="9.5" x="40.25" y="102.75"/>
    <rect fill="none" height="4.5" rx="2.25" ry="2.25" stroke="#000" stroke-linejoin="round" stroke-width="1" width="9.5" x="55.25" y="102.75"/>
    <rect fill="none" height="4.5" rx="2.25" ry="2.25" stroke="#000" stroke-linejoin="round" stroke-width="1" width="9.5" x="70.25" y="102.75"/>
    <rect fill="none" height="4.5" rx="2.25" ry="2.25" stroke="#000" stroke-linejoin="round" stroke-width="1" width="9.5" x="85.25" y="102.75"/>
    <rect fill="none" height="4.5" rx="2.25" ry="2.25" stroke="#000" stroke-linejoin="round" stroke-width="1" width="9.5" x="100.25" y="102.75"/>
    <rect fill="none" height="4.5" rx="2.25" ry="2.25" stroke="#000" stroke-linejoin="round" stroke-width="1" width="9.5" x="115.25" y="102.75"/>
    <rect fill="none" height="4.5" rx="2.25" ry="2.25" stroke="#000" stroke-linejoin="round" stroke-width="1" width="9.5" x="130.25" y="102.75"/>
    <rect fill="none" height="4.5" rx="2.25" ry="2.25" stroke="#000" stroke-linejoin="round" stroke-width="1" width="9.5" x="145.25" y="102.75"/>
    <rect fill="none" height="4.5" rx="2.25" ry="2.25" stroke="#000" stroke-linejoin="round" stroke-width="1" width="9.5" x="160.25" y="102.75"/>
    <rect fill="none" height="4.5" rx="2.25" ry="2.25" stroke="#000" stroke-linejoin="round" stroke-width="1" width="9.5" x="175.25" y="102.75"/>
    <rect fill="none" height="4.5" rx="2.25" ry="2.25" stroke="#000" stroke-linejoin="round" stroke-width="1" width="9.5" x="190.25" y="102.75"/>
    <rect fill="none" height="4.5" rx="2.25" ry="2.25" stroke="#000" stroke-linejoin="round" stroke-width="1" width="9.5" x="205.25" y="102.75"/>
    <rect fill="none" height="4.5" rx="2.25" ry="2.25" stroke="#000" stroke-linejoin="round" stroke-width="1" width="9.5" x="220.25" y="102.75"/>
    <rect fill="none" height="4.5" rx="2.25" ry="2.25" stroke="#000" stroke-linejoin="round" stroke-width="1" width="9.5" x="235.25" y="102.75"/>
    <rect fill="none" height="4.5" rx="2.25" ry="2.25" stroke="#000" stroke-linejoin="round" stroke-width="1" width="9.5" x="250.25" y="102.75"/>
    <rect fill="none" height="4.5" rx="2.25" ry="2.25" stroke="#000" stroke-linejoin="round" stroke-width="1" width="9.5" x="265.25" y="102.75"/>
    <rect fill="none" height="4.5" rx="2.25" ry="2.25" stroke="#000" stroke-linejoin="round" stroke-width="1" width="9.5" x="17.75" y="112.75"/>
    <rect fill="none" height="4.5" rx="2.25" ry="2.25" stroke="#000" stroke-linejoin="round" stroke-width="1" width="9.5" x="32.75" y="112.75"/>
    <rect fill="none" height="4.5" rx="2.25" ry="2.25" stroke="#000" stroke-linejoin="round" stroke-width="1" width="9.5" x="47.75" y="112.75"/>
    <rect fill="none" height="4.5" rx="2.25" ry="2.25" stroke="#000" stroke-linejoin="round" stroke-width="1" width="9.5" x="62.75" y="112.75"/>
    <rect fill="none" height="4.5" rx="2.25" ry="2.25" stroke="#000" stroke-linejoin="round" stroke-width="1" width="9.5" x="77.75" y="112.75"/>
    <rect fill="none" height="4.5" rx="2.25" ry="2.25" stroke="#000" stroke-linejoin="round" stroke-width="1" width="9.5" x="92.75" y="112.75"/>
    <rect fill="none" height="4.5" rx="2.25" ry="2.25" stroke="#000" stroke-linejoin="round" stroke-width="1" width="9.5" x="107.75" y="112.75"/>
    <rect fill="none" height="4.5" rx="2.25" ry="2.25" stroke="#000" stroke-linejoin="round" stroke-width="1" width="9.5" x="122.75" y="112.75"/>
    <rect fill="none" height="4.5" rx="2.25" ry="2.25" stroke="#000" stroke-linejoin="round" stroke-width="1" width="9.5" x="137.75" y="112.75"/>
    <rect fill="none" height="4.5" rx="2.25" ry="2.25" stroke="#000" stroke-linejoin="round" stroke-width="1" width="9.5" x="152.75" y="112.75"/>
    <rect fill="none" height="4.5" rx="2.25" ry="2.25" stroke="#000" stroke-linejoin="round" stroke-width="1" width="9.5" x="167.75" y="112.75"/>
    <rect fill="none" height="4.5" rx="2.25" ry="2.25" stroke="#000" stroke-linejoin="round" stroke-width="1" width="9.5" x="182.75" y="112.75"/>
    <rect fill="none" height="4.5" rx="2.25" ry="2.25" stroke="#000" stroke-linejoin="round" stroke-width="1" width="9.5" x="197.75" y="112.75"/>
    <rect fill="none" height="4.5" rx="2.25" ry="2.25" stroke="#000" stroke-linejoin="round" stroke-width="1" width="9.5" x="212.75" y="112.75"/>
    <rect fill="none" height="4.5" rx="2.25" ry="2.25" stroke="#000" stroke-linejoin="round" stroke-width="1" width="9.5" x="227.75" y="112.75"/>
    <rect fill="none" height="4.5" rx="2.25" ry="2.25" stroke="#000" stroke-linejoin="round" stroke-width="1" width="9.5" x="242.75" y="112.75"/>
    <rect fill="none" height="4.5" rx="2.25" ry="2.25" stroke="#000" stroke-linejoin="round" stroke-width="1" width="9.5" x="257.75" y="112.75"/>
    <rect fill="none" height="4.5" rx="2.25" ry="2.25" stroke="#000" stroke-linejoin="round" stroke-width="1" width="9.5" x="272.75" y="112.75"/>
    <rect fill="none" height="4.5" rx="2.25" ry="2.25" stroke="#000" stroke-linejoin="round" stroke-width="1" width="9.5" x="25.25" y="122.75"/>
    <rect fill="none" height="4.5" rx="2.25" ry="2.25" stroke="#000" stroke-linejoin="round" stroke-width="1" width="9.5" x="40.25" y="122.75"/>
    <rect fill="none" height="4.5" rx="2.25" ry="2.25" stroke="#000" stroke-linejoin="round" stroke-width="1" width="9.5" x="55.25" y="122.75"/>
    <rect fill="none" height="4.5" rx="2.25" ry="2.25" stroke="#000" stroke-linejoin="round" stroke-width="1" width="9.5" x="70.25" y="122.75"/>
    <rect fill="none" height="4.5" rx="2.25" ry="2.25" stroke="#000" stroke-linejoin="round" stroke-width="1" width="9.5" x="85.25" y="122.75"/>
    <rect fill="none" height="4.5" rx="2.25" ry="2.25" stroke="#000" stroke-linejoin="round" stroke-width="1" width="9.5" x="100.25" y="122.75"/>
    <rect fill="none" height="4.5" rx="2.25" ry="2.25" stroke="#000" stroke-linejoin="round" stroke-width="1" width="9.5" x="115.25" y="122.75"/>
    <rect fill="none" height="4.5" rx="2.25" ry="2.25" stroke="#000" stroke-linejoin="round" stroke-width="1" width="9.5" x="130.25" y="122.75"/>
    <rect fill="none" height="4.5" rx="2.25" ry="2.25" stroke="#000" stroke-linejoin="round" stroke-width="1" width="9.5" x="145.25" y="122.75"/>
    <rect fill="none" height="4.5" rx="2.25" ry="2.25" stroke="#000" stroke-linejoin="round" stroke-width="1" width="9.5" x="160.25" y="122.75"/>
    <rect fill="none" height="4.5" rx="2.25" ry="2.25" stroke="#000" stroke-linejoin="round" stroke-width="1" width="9.5" x="175.25" y="122.75"/>
    <rect fill="none" height="4.5" rx="2.25" ry="2.25" stroke="#000" stroke-linejoin="round" stroke-width="1" width="9.5" x="190.25" y="122.75"/>
    <rect fill="none" height="4.5" rx="2.25" ry="2.25" stroke="#000" stroke-linejoin="round" stroke-width="1" width="9.5" x="205.25" y="122.75"/>
    <rect fill="none" height="4.5" rx="2.25" ry="2.25" stroke="#000" stroke-linejoin="round" stroke-width="1" width="9.5" x="220.25" y="122.75"/>
    <rect fill="none" height="4.5" rx="2.25" ry="2.25" stroke="#000" stroke-linejoin="round" stroke-width="1" width="9.5" x="235.25" y="122.75"/>
    <rect fill="none" height="4.5" rx="2.25" ry="2.25" stroke="#000" stroke-linejoin="round" stroke-width="1" width="9.5" x="250.25" y="122.75"/>
    <rect fill="none" height="4.5" rx="2.25" ry="2.25" stroke="#000" stroke-linejoin="round" stroke-width="1" width="9.5" x="265.25" y="122.75"/>
    <rect fill="none" height="4.5" rx="2.25" ry="2.25" stroke="#000" stroke-linejoin="round" stroke-width="1" width="9.5" x="17.75" y="132.75"/>
    <rect fill="none" height="4.5" rx="2.25" ry="2.25" stroke="#000" stroke-linejoin="round" stroke-width="1" width="9.5" x="32.75" y="132.75"/>
    <rect fill="none" height="4.5" rx="2.25" ry="2.25" stroke="#000" stroke-linejoin="round" stroke-width="1" width="9.5" x="47.75" y="132.75"/>
    <rect fill="none" height="4.5" rx="2.25" ry="2.25" stroke="#000" stroke-linejoin="round" stroke-width="1" width="9.5" x="62.75" y="132.75"/>
    <rect fill="none" height="4.5" rx="2.25" ry="2.25" stroke="#000" stroke-linejoin="round" stroke-width="1" width="9.5" x="77.75" y="132.75"/>
    <rect fill="none" height="4.5" rx="2.25" ry="2.25" stroke="#000" stroke-linejoin="round" stroke-width="1" width="9.5" x="92.75" y="132.75"/>
    <rect fill="none" height="4.5" rx="2.25" ry="2.25" stroke="#000" stroke-linejoin="round" stroke-width="1" width="9.5" x="107.75" y="132.75"/>
    <rect fill="none" height="4.5" rx="2.25" ry="2.25" stroke="#000" stroke-linejoin="round" stroke-width="1" width="9.5" x="122.75" y="132.75"/>
    <rect fill="none" height="4.5" rx="2.25" ry="2.25" stroke="#000" stroke-linejoin="round" stroke-width="1" width="9.5" x="137.75" y="132.75"/>
    <rect fill="none" height="4.5" rx="2.25" ry="2.25" stroke="#000" stroke-linejoin="round" stroke-width="1" width="9.5" x="152.75" y="132.75"/>
    <rect fill="none" height="4.5" rx="2.25" ry="2.25" stroke="#000" stroke-linejoin="round" stroke-width="1" width="9.5" x="167.75" y="132.75"/>
    <rect fill="none" height="4.5" rx="2.25" ry="2.25" stroke="#000" stroke-linejoin="round" stroke-width="1" width="9.5" x="182.75" y="132.75"/>
    <rect fill="none" height="4.5" rx="2.25" ry="2.25" stroke="#000" stroke-linejoin="round" stroke-width="1" width="9.5" x="197.75" y="132.75"/>
    <rect fill="none" height="4.5" rx="2.25" ry="2.25" stroke="#000" stroke-linejoin="round" stroke-width="1" width="9.5" x="212.75" y="132.75"/>
    <rect fill="none" height="4.5" rx="2.25" ry="2.25" stroke="#000" stroke-linejoin="round" stroke-width="1" width="9.5" x="227.75" y="132.75"/>
    <rect fill="none" height="4.5" rx="2.25" ry="2.25" stroke="#000" stroke-linejoin="round" stroke-width="1" width="9.5" x="242.75" y="132.75"/>
    <rect fill="none" height="4.5" rx="2.25" ry="2.25" stroke="#000" stroke-linejoin="round" stroke-width="1" width="9.5" x="257.75" y="132.75"/>
    <rect fill="none" height="4.5" rx="2.25" ry="2.25" stroke="#000" stroke-linejoin="round" stroke-width="1" width="9.5" x="272.75" y="132.75"/>
</svg>
